<svg width="37" height="45" viewBox="0 0 37 45" fill="none" xmlns="http://www.w3.org/2000/svg">
<rect x="1" y="13.025" width="34.2222" height="15.225" fill="#F6E763"/>
<rect x="9.81482" y="15.65" width="17.1111" height="15.225" fill="#F6E763"/>
<path d="M35.7407 9.875L18.8889 19.85V25.1L35.7407 14.6V9.875Z" fill="black"/>
<path d="M18.8889 19.85L1 9.875V14.6L18.8889 25.1V19.85Z" fill="black"/>
<path d="M18.8889 2L1 9.875L18.8889 19.85L35.7407 9.875L18.8889 2Z" fill="black"/>
<path fill-rule="evenodd" clip-rule="evenodd" d="M18.8889 44L1 31.1375V20.1125L18.8889 31.1375V44ZM1 18.275V16.4375L18.8889 27.2V28.775L1 18.275Z" fill="black"/>
<path fill-rule="evenodd" clip-rule="evenodd" d="M35.7407 31.1375L18.8889 44V31.1375L35.7407 20.1125V31.1375ZM18.8889 28.775V27.2L35.7407 16.4375V18.275L18.8889 28.775Z" fill="black"/>
<path d="M1 9.875L18.8889 2L35.7407 9.875M1 9.875L18.8889 19.85M1 9.875V14.6M1 9.875V31.1375M18.8889 19.85L35.7407 9.875M18.8889 19.85V25.1M18.8889 19.85V44M35.7407 9.875V14.6M1 31.1375L18.8889 44M1 31.1375V20.1125M18.8889 44L35.7407 31.1375V20.1125M18.8889 44V31.1375M1 14.6L18.8889 25.1M1 14.6V16.4375M18.8889 25.1L35.7407 14.6M18.8889 25.1V27.2M35.7407 14.6V16.4375M1 16.4375L18.8889 27.2M1 16.4375V18.275M18.8889 27.2L35.7407 16.4375M18.8889 27.2V28.775M35.7407 16.4375V18.275M1 18.275L18.8889 28.775M1 18.275V20.1125M18.8889 28.775L35.7407 18.275M18.8889 28.775V31.1375M35.7407 18.275V20.1125M35.7407 20.1125L18.8889 31.1375M18.8889 31.1375L1 20.1125" stroke="black"/>
<path d="M27.7037 23.7875V25.3625L29.5186 24.3125V22.2125L27.7037 23.2625V23.7875Z" fill="black" stroke="black"/>
<path d="M31.5927 21.425V23L33.4075 21.95V19.85L31.5927 20.9V21.425Z" fill="black" stroke="black"/>
<path d="M21.2222 27.4625V40.0625L26.6666 35.8625V24.05L21.2222 27.4625Z" fill="#F0E260" stroke="black"/>
<path d="M3.59265 19.5875V21.95L5.40747 23V20.6375L3.59265 19.5875Z" fill="black" stroke="black"/>
<path d="M7.74072 21.95V24.3125L9.55554 25.3625V23L7.74072 21.95Z" fill="black" stroke="black"/>
<path d="M11.8889 24.3125V26.675L13.7037 27.725V25.3625L11.8889 24.3125Z" fill="black" stroke="black"/>
<path d="M16.037 26.675V29.0375L17.8518 30.0875V27.725L16.037 26.675Z" fill="black" stroke="black"/>
<path d="M4.6296 20.6375L4.11108 21.1625L4.37034 22.2125L4.88886 21.425L4.6296 20.6375Z" fill="#F0E260"/>
<path d="M8.7778 23L8.25928 23.525L8.51854 24.575L9.03706 23.7875L8.7778 23Z" fill="#F0E260"/>
<path d="M12.9259 25.3625L12.4073 25.8875L12.6666 26.9375L13.1851 26.15L12.9259 25.3625Z" fill="#F0E260"/>
<path d="M17.0741 27.725L16.5555 28.25L16.8148 29.3L17.3333 28.5125L17.0741 27.725Z" fill="#F0E260"/>
<path d="M28.4258 23.1326L29.0524 23.5758L28.9145 24.6546L28.2529 23.9513L28.4258 23.1326Z" fill="#F0E260"/>
<path d="M32.3893 20.452L33.0159 20.8952L32.878 21.974L32.2164 21.2707L32.3893 20.452Z" fill="#F0E260"/>
<path d="M18.6296 20L1.5 9.5L18.6296 1.5L35 9.5L18.6296 20Z" stroke="#F0E260"/>
</svg>
