<svg width="31" height="31" viewBox="0 0 31 31" fill="none" xmlns="http://www.w3.org/2000/svg">
<path d="M28.3811 30C29.2752 30 30 29.2752 30 28.3811C30 27.487 29.2752 26.7622 28.3811 26.7622H2.61889C1.7248 26.7622 1 27.487 1 28.3811C1 29.2752 1.7248 30 2.61889 30H28.3811Z" fill="black" stroke="black"/>
<rect width="6.18933" height="17.8078" rx="0.2" transform="matrix(-1 0 0 1 28.6523 7.89209)" fill="black"/>
<rect width="6.18933" height="17.8078" rx="0.2" transform="matrix(-1 0 0 1 8.48706 7.89209)" fill="black"/>
<rect width="11.8795" height="17.8078" rx="0.2" transform="matrix(-1 0 0 1 21.5646 7.38617)" fill="black"/>
<rect width="2.69535" height="3.54132" transform="matrix(-1 0 0 1 28.3528 9.61212)" fill="white"/>
<rect width="2.69535" height="3.54132" transform="matrix(-1 0 0 1 19.7677 8.49915)" fill="white"/>
<rect width="2.69535" height="3.54132" transform="matrix(-1 0 0 1 19.7677 12.5464)" fill="white"/>
<rect width="2.69535" height="3.54132" transform="matrix(-1 0 0 1 19.7677 16.5936)" fill="white"/>
<rect width="2.69535" height="3.54132" transform="matrix(-1 0 0 1 19.7677 20.6408)" fill="white"/>
<rect width="2.69535" height="3.54132" transform="matrix(-1 0 0 1 13.9777 8.49915)" fill="white"/>
<rect width="2.69535" height="3.54132" transform="matrix(-1 0 0 1 13.9777 12.5464)" fill="white"/>
<rect width="2.69535" height="3.54132" transform="matrix(-1 0 0 1 13.9777 16.5936)" fill="white"/>
<rect width="2.69535" height="3.54132" transform="matrix(-1 0 0 1 13.9777 20.6408)" fill="white"/>
<rect width="2.69535" height="3.54132" transform="matrix(-1 0 0 1 8.18762 9.51099)" fill="white"/>
<rect width="2.69535" height="3.54132" transform="matrix(-1 0 0 1 28.3528 13.3558)" fill="white"/>
<rect width="2.69535" height="3.54132" transform="matrix(-1 0 0 1 8.18762 13.2546)" fill="white"/>
<rect width="2.69535" height="3.54132" transform="matrix(-1 0 0 1 28.3528 17.0995)" fill="white"/>
<rect width="2.69535" height="3.54132" transform="matrix(-1 0 0 1 8.18762 16.9983)" fill="white"/>
<rect width="2.69535" height="3.54132" transform="matrix(-1 0 0 1 28.3528 20.8431)" fill="white"/>
<rect width="2.69535" height="3.54132" transform="matrix(-1 0 0 1 8.18762 20.742)" fill="white"/>
<rect width="2.69535" height="3.54132" transform="matrix(-1 0 0 1 25.4579 9.61212)" fill="white"/>
<rect width="2.69535" height="3.54132" transform="matrix(-1 0 0 1 16.8727 8.49915)" fill="white"/>
<rect width="2.69535" height="3.54132" transform="matrix(-1 0 0 1 16.8727 12.5464)" fill="white"/>
<rect width="2.69535" height="3.54132" transform="matrix(-1 0 0 1 16.8727 16.5936)" fill="white"/>
<rect width="2.69535" height="3.54132" transform="matrix(-1 0 0 1 16.8727 20.6408)" fill="white"/>
<rect width="2.69535" height="3.54132" transform="matrix(-1 0 0 1 5.2926 9.51099)" fill="white"/>
<rect width="2.69535" height="3.54132" transform="matrix(-1 0 0 1 25.4579 13.3558)" fill="white"/>
<rect width="2.69535" height="3.54132" transform="matrix(-1 0 0 1 5.2926 13.2546)" fill="white"/>
<rect width="2.69535" height="3.54132" transform="matrix(-1 0 0 1 25.4579 17.0995)" fill="white"/>
<rect width="2.69535" height="3.54132" transform="matrix(-1 0 0 1 5.2926 16.9983)" fill="white"/>
<rect width="2.69535" height="3.54132" transform="matrix(-1 0 0 1 25.4579 20.8431)" fill="white"/>
<rect width="2.69535" height="3.54132" transform="matrix(-1 0 0 1 5.2926 20.742)" fill="white"/>
<path d="M20.167 1C20.167 0.447716 19.7193 0 19.167 0H11.7832C11.2309 0 10.7832 0.447715 10.7832 1V7.08263H20.167V1Z" fill="black"/>
<rect width="1.99656" height="3.84486" rx="0.998279" transform="matrix(-1 0 0 1 18.6696 1.6189)" fill="white"/>
<path d="M21.5646 7.89208C21.5646 6.99799 20.8398 6.27319 19.9457 6.27319H11.3039C10.4099 6.27319 9.68506 6.99799 9.68506 7.89208H21.5646Z" fill="black"/>
<rect width="1.99656" height="3.84486" rx="0.998279" transform="matrix(-1 0 0 1 14.2771 1.6189)" fill="white"/>
<rect width="1.99656" height="3.84486" rx="0.998279" transform="matrix(-1 0 0 1 16.4733 1.6189)" fill="white"/>
</svg>
