<svg width="31" height="31" viewBox="0 0 31 31" fill="none" xmlns="http://www.w3.org/2000/svg">
<path d="M28.3811 30C29.2752 30 30 29.2752 30 28.3811C30 27.487 29.2752 26.7622 28.3811 26.7622H2.61889C1.7248 26.7622 1 27.487 1 28.3811C1 29.2752 1.7248 30 2.61889 30H28.3811Z" fill="white" stroke="white"/>
<rect width="6.18933" height="17.8078" rx="0.2" transform="matrix(-1 0 0 1 28.6523 7.89209)" fill="white"/>
<rect width="6.18933" height="17.8078" rx="0.2" transform="matrix(-1 0 0 1 8.48706 7.89209)" fill="white"/>
<rect width="11.8795" height="17.8078" rx="0.2" transform="matrix(-1 0 0 1 21.5645 7.38617)" fill="white"/>
<rect width="2.69535" height="3.54132" transform="matrix(-1 0 0 1 28.3528 9.61212)" fill="black"/>
<rect width="2.69535" height="3.54132" transform="matrix(-1 0 0 1 19.7676 8.49915)" fill="black"/>
<rect width="2.69535" height="3.54132" transform="matrix(-1 0 0 1 19.7676 12.5464)" fill="black"/>
<rect width="2.69535" height="3.54132" transform="matrix(-1 0 0 1 19.7676 16.5936)" fill="black"/>
<rect width="2.69535" height="3.54132" transform="matrix(-1 0 0 1 19.7676 20.6408)" fill="black"/>
<rect width="2.69535" height="3.54132" transform="matrix(-1 0 0 1 13.9775 8.49915)" fill="black"/>
<rect width="2.69535" height="3.54132" transform="matrix(-1 0 0 1 13.9775 12.5464)" fill="black"/>
<rect width="2.69535" height="3.54132" transform="matrix(-1 0 0 1 13.9775 16.5936)" fill="black"/>
<rect width="2.69535" height="3.54132" transform="matrix(-1 0 0 1 13.9775 20.6408)" fill="black"/>
<rect width="2.69535" height="3.54132" transform="matrix(-1 0 0 1 8.1875 9.51099)" fill="black"/>
<rect width="2.69535" height="3.54132" transform="matrix(-1 0 0 1 28.3528 13.3558)" fill="black"/>
<rect width="2.69535" height="3.54132" transform="matrix(-1 0 0 1 8.1875 13.2546)" fill="black"/>
<rect width="2.69535" height="3.54132" transform="matrix(-1 0 0 1 28.3528 17.0995)" fill="black"/>
<rect width="2.69535" height="3.54132" transform="matrix(-1 0 0 1 8.1875 16.9983)" fill="black"/>
<rect width="2.69535" height="3.54132" transform="matrix(-1 0 0 1 28.3528 20.8431)" fill="black"/>
<rect width="2.69535" height="3.54132" transform="matrix(-1 0 0 1 8.1875 20.742)" fill="black"/>
<rect width="2.69535" height="3.54132" transform="matrix(-1 0 0 1 25.4578 9.61212)" fill="black"/>
<rect width="2.69535" height="3.54132" transform="matrix(-1 0 0 1 16.8726 8.49915)" fill="black"/>
<rect width="2.69535" height="3.54132" transform="matrix(-1 0 0 1 16.8726 12.5464)" fill="black"/>
<rect width="2.69535" height="3.54132" transform="matrix(-1 0 0 1 16.8726 16.5936)" fill="black"/>
<rect width="2.69535" height="3.54132" transform="matrix(-1 0 0 1 16.8726 20.6408)" fill="black"/>
<rect width="2.69535" height="3.54132" transform="matrix(-1 0 0 1 5.29248 9.51099)" fill="black"/>
<rect width="2.69535" height="3.54132" transform="matrix(-1 0 0 1 25.4578 13.3558)" fill="black"/>
<rect width="2.69535" height="3.54132" transform="matrix(-1 0 0 1 5.29248 13.2546)" fill="black"/>
<rect width="2.69535" height="3.54132" transform="matrix(-1 0 0 1 25.4578 17.0995)" fill="black"/>
<rect width="2.69535" height="3.54132" transform="matrix(-1 0 0 1 5.29248 16.9983)" fill="black"/>
<rect width="2.69535" height="3.54132" transform="matrix(-1 0 0 1 25.4578 20.8431)" fill="black"/>
<rect width="2.69535" height="3.54132" transform="matrix(-1 0 0 1 5.29248 20.742)" fill="black"/>
<path d="M20.167 1C20.167 0.447716 19.7193 0 19.167 0H11.7832C11.2309 0 10.7832 0.447715 10.7832 1V7.08263H20.167V1Z" fill="white"/>
<rect width="1.99656" height="3.84486" rx="0.998279" transform="matrix(-1 0 0 1 18.6694 1.6189)" fill="black"/>
<path d="M21.5645 7.89208C21.5645 6.99799 20.8397 6.27319 19.9456 6.27319H11.3038C10.4097 6.27319 9.68494 6.99799 9.68494 7.89208H21.5645Z" fill="white"/>
<rect width="1.99656" height="3.84486" rx="0.998279" transform="matrix(-1 0 0 1 14.2771 1.6189)" fill="black"/>
<rect width="1.99656" height="3.84486" rx="0.998279" transform="matrix(-1 0 0 1 16.4734 1.6189)" fill="black"/>
</svg>
