<svg width="24" height="24" viewBox="0 0 24 24" fill="none" xmlns="http://www.w3.org/2000/svg">
<path d="M18.492 5.08818C17.6197 4.20712 16.5808 3.50856 15.4358 3.03323C14.2907 2.5579 13.0625 2.31532 11.8227 2.31964C6.62815 2.31964 2.39447 6.55332 2.39447 11.7479C2.39447 13.4128 2.83211 15.0302 3.6503 16.4573L2.31836 21.3474L7.31315 20.0345C8.69267 20.7861 10.2434 21.1857 11.8227 21.1857C17.0173 21.1857 21.251 16.952 21.251 11.7574C21.251 9.23623 20.2711 6.86727 18.492 5.08818ZM11.8227 19.5873C10.4147 19.5873 9.03516 19.2068 7.8269 18.4932L7.54148 18.322L4.57315 19.1021L5.3628 16.2099L5.17253 15.915C4.39024 14.6658 3.97486 13.2218 3.97378 11.7479C3.97378 7.42859 7.49391 3.90846 11.8132 3.90846C13.9063 3.90846 15.8757 4.72665 17.3503 6.21082C18.0805 6.93764 18.6591 7.80217 19.0527 8.75428C19.4463 9.7064 19.647 10.7272 19.6432 11.7574C19.6622 16.0767 16.142 19.5873 11.8227 19.5873ZM16.123 13.7268C15.8852 13.6126 14.7245 13.0418 14.5152 12.9562C14.2963 12.8801 14.1441 12.842 13.9824 13.0703C13.8207 13.3082 13.3735 13.841 13.2403 13.9932C13.1071 14.1549 12.9644 14.1739 12.7266 14.0503C12.4887 13.9361 11.7276 13.6792 10.8333 12.8801C10.1293 12.2521 9.66308 11.4815 9.52037 11.2437C9.38718 11.0058 9.50135 10.8821 9.62503 10.7585C9.72968 10.6538 9.86287 10.4826 9.97704 10.3494C10.0912 10.2162 10.1388 10.1115 10.2149 9.95929C10.291 9.79755 10.2529 9.66436 10.1959 9.55019C10.1388 9.43603 9.66308 8.27533 9.4728 7.79964C9.28253 7.34297 9.08273 7.40005 8.94003 7.39054H8.48336C8.32162 7.39054 8.07426 7.44762 7.85544 7.68547C7.64614 7.92332 7.03725 8.49415 7.03725 9.65484C7.03725 10.8155 7.88398 11.9382 7.99815 12.0904C8.11232 12.2521 9.66308 14.6306 12.0225 15.6486C12.5838 15.896 13.0215 16.0387 13.364 16.1433C13.9253 16.3241 14.4391 16.2955 14.8482 16.2385C15.3048 16.1719 16.2467 15.6676 16.437 15.1158C16.6368 14.564 16.6368 14.0978 16.5702 13.9932C16.5036 13.8885 16.3609 13.841 16.123 13.7268Z" fill="white"/>
</svg>
